<?xml version="1.0" standalone="no"?>
<!DOCTYPE svg PUBLIC "-//W3C//DTD SVG 20010904//EN"
 "http://www.w3.org/TR/2001/REC-SVG-20010904/DTD/svg10.dtd">
<svg version="1.0" xmlns="http://www.w3.org/2000/svg"
 width="500.000000pt" height="500.000000pt" viewBox="0 0 500.000000 500.000000"
 preserveAspectRatio="xMidYMid meet">
<metadata>
Created by potrace 1.14, written by Peter Selinger 2001-2017
</metadata>
<g transform="translate(0.000000,500.000000) scale(0.100000,-0.100000)"
fill="#000000" stroke="none">
<path d="M2203 4984 c-473 -59 -894 -236 -1268 -532 -87 -70 -275 -253 -340
-334 -27 -33 -54 -66 -60 -72 -10 -10 -129 -180 -162 -232 -7 -10 -25 -41 -39
-69 -15 -27 -30 -51 -35 -53 -5 -2 -9 -8 -9 -13 0 -5 -20 -51 -45 -101 -82
-172 -163 -407 -189 -553 -3 -16 -8 -41 -11 -55 -3 -14 -8 -43 -11 -65 -3 -22
-7 -46 -9 -53 -26 -78 -26 -626 0 -704 2 -7 6 -31 9 -53 3 -22 14 -83 26 -135
12 -52 23 -102 25 -110 1 -8 13 -44 25 -80 12 -36 23 -72 25 -80 3 -13 28 -82
50 -135 5 -11 9 -22 10 -25 0 -3 16 -36 35 -75 18 -38 35 -76 36 -83 1 -8 9
-21 16 -30 8 -10 24 -37 37 -62 33 -63 84 -144 93 -148 5 -2 8 -8 8 -14 0 -25
183 -250 303 -372 204 -207 360 -323 627 -468 204 -110 545 -220 785 -252 22
-3 69 -10 105 -15 67 -9 506 -7 550 3 14 3 42 8 62 10 182 24 437 93 623 171
62 26 209 98 215 106 3 3 15 9 28 13 34 11 255 162 357 244 93 74 284 263 345
341 19 24 47 59 63 76 15 18 27 37 27 43 0 6 4 12 8 14 5 2 31 37 58 78 27 41
51 77 54 80 3 3 12 19 20 35 8 17 17 32 20 35 5 5 33 54 51 90 12 22 75 160
92 200 18 41 67 178 72 200 2 8 13 48 25 89 23 81 48 196 56 251 2 19 7 46 9
60 27 150 27 537 0 710 -14 88 -48 246 -60 281 -8 22 -12 39 -10 39 6 0 -58
186 -95 275 -79 191 -210 417 -332 574 -28 34 -57 73 -66 84 -59 75 -284 287
-377 356 -60 44 -115 85 -121 90 -24 20 -295 180 -347 204 -187 89 -464 177
-632 201 -197 29 -262 34 -435 33 -107 0 -241 -6 -297 -13z"/>
</g>
</svg>
