<?xml version="1.0" encoding="UTF-8"?>
<svg id="Layer_1" data-name="Layer 1" xmlns="http://www.w3.org/2000/svg" viewBox="0 0 47.61 60.62">
  <path d="m2.04,51.16c14.39,0,28.78-.02,43.16-.02.24,0,.48.08.73.12l-.03-.02c-.38,1.51-.18,3.04-.2,4.56-.02,1.2-.02,2.41.05,3.61.06.94-.31,1.2-1.23,1.2-9.99-.03-19.98-.02-29.97-.02-3.79,0-7.58-.01-11.36.04-.9.01-1.25-.19-1.22-1.16.09-2.78.07-5.56.1-8.34l-.04.04Zm21.8,7.53s0,0,0-.01c5.83,0,11.66,0,17.5,0q2.48,0,2.48-2.44c0-3.25,0-3.27-3.28-3.28-10.37-.02-20.75-.01-31.12-.02-1.5,0-3,.01-4.5-.01-.83-.01-1.22.27-1.17,1.16.07,1.16.07,2.32.04,3.49-.02.85.29,1.14,1.17,1.14,6.29-.04,12.58-.02,18.87-.02Z"/>
  <path d="m45.93,51.26c-.42-.95-.22-1.96-.22-2.94-.01-14.53,0-29.05.04-43.58,0-.76-.14-1.07-.95-.95-.74.11-1.11-.24-.99-1.01.1-.59.02-.92-.73-.92-8.7.02-17.41.01-26.11.02-3.96,0-7.91.02-11.87.04-.67,0-1.28,0-1.26-.93C3.85.18,4.27,0,5.04,0c12.37.03,24.74.03,37.11.02,1.02,0,2-.08,1.83,1.41-.04.37.19.52.55.46.08-.01.17,0,.25-.02.32-.06.77.11.73.31-.39,1.76,2.11,1.18,2.1,2.8-.07,14.78-.07,29.55-.02,44.33,0,1.33-.28,2.01-1.69,1.92,0,0,.03.02.03.02Z"/>
  <path d="m2.07,51.12q-2.03.04-2.03-2c0-14.64,0-29.28.01-43.93,0-.48-.3-1.12.44-1.39.91-.34,1.44.08,1.46,1.19.03,1.99.04,3.98.04,5.97.02,13.4.03,26.8.04,40.19,0,0,.04-.04.04-.04Z"/>
  <path d="m40.11,7.48c-10.4.02-20.8.04-31.21.06-.76,0-1.33-.17-1.32-1.08.01-.99.75-.81,1.35-.81,9.74.01,19.48.03,29.22.05,1.84,0,1.84.02,1.93,1.8,0,0,.03-.03.03-.03Z"/>
  <path d="m40.02,32.19c-.01,1.77-.16,1.97-1.62,1.92-7.4-.24-14.81-.07-22.21-.1-2.58,0-5.16,0-7.73.07-.73.02-.89-.32-.87-.88.02-.49,0-1.04.77-1.01.71.03,1.41,0,2.12,0,9.86,0,19.72.02,29.58.02l-.04-.04Z"/>
  <path d="m40.06,32.23c.02-8.25.03-16.5.05-24.75,0,0-.03.03-.03.03q1.74.17,1.74,1.87c.02,6.97.04,13.95.06,20.92q0,1.92-1.86,1.9s.04.04.04.04Z"/>
  <path d="m5.75,19.75c0-3.69.03-7.39-.02-11.08-.01-.9.32-1.12,1.14-1.17,1.07-.08.76.64.76,1.14,0,7.43-.02,14.85-.04,22.28,0,.55.16,1.2-.75,1.28-1.01.09-1.06-.52-1.06-1.25,0-3.73,0-7.47,0-11.2h-.03Z"/>
  <path d="m24.8,18.04c0,1.24-.03,2.48.01,3.72.02.69-.24,1-.93.97-.58-.02-1.16-.02-1.74.01-.65.04-1.12-.03-1.14-.88-.01-.8.26-1.19,1.08-1.07.83.11.94-.28.91-1.01-.08-1.82-.07-3.64-.1-5.46,0-.55-.06-1.06.79-1.07.81,0,1.12.25,1.09,1.06-.05,1.24-.01,2.48-.01,3.72.01,0,.02,0,.04,0Z"/>
  <path d="m34.26,43.53c-1.54,0-3.07,0-4.61,0-.63,0-1.16-.06-1.18-.9-.01-.89.51-.99,1.22-.98,3.07.02,6.14.02,9.21.01.68,0,1.12.17,1.14.95.02.78-.46.86-1.05.86-1.58,0-3.15,0-4.73,0,0,.02,0,.03,0,.05Z"/>
  <path d="m19.05,26.51c2.21,0,4.41,0,6.62,0,.53,0,1.12-.11,1.12.75,0,.83-.43,1.05-1.19,1.04-1.58-.02-3.16,0-4.75.04-1.89.03-1.89.04-1.77-1.87,0,0-.04.04-.04.04Z"/>
  <path d="m28.53,15.09c0-.33.03-.67,0-.99-.07-.68.27-.85.89-.84.59.02,1.11.04,1.08.83-.02.66-.02,1.33-.06,1.99-.03.57-.16,1.05-.94,1.01-.77-.04-1.01-.42-.96-1.12.02-.29,0-.58,0-.87h0Z"/>
  <path d="m7.4,45.37c-.53-.16-1.79.54-1.71-.98.07-1.43,1.25-.81,2.01-.88.45-.05.92-.01,1.36.08.52.11.51.57.51.99,0,.41-.14.75-.61.78-.45.03-.91,0-1.55,0Z"/>
  <path d="m15.27,14.8c.38-.37-.85-1.47.67-1.54.84-.04,1.23.15,1.12,1.06-.07.57-.03,1.16-.02,1.73.02.63-.15,1.03-.9,1.01-.74-.02-.91-.41-.87-1.05.02-.37,0-.74,0-1.22Z"/>
  <path d="m27.63,26.45c-.68.04-1.03-.34-1.03-1.03,0-.59.34-.88.94-.88.74,0,1.01.4,1.04,1.08.02.64-.3.89-.95.83Z"/>
  <path d="m19.09,26.47c-.33,0-.66,0-.99-.02-.54-.02-1.02-.15-1.02-.82,0-.57.36-.99.87-1.08.66-.11.93.43,1.07.97.08.31.03.65.04.98,0,0,.04-.04.04-.04Z"/>
  <path d="m2.95,3.81c-.69-.07-.94-.45-.92-1.1.03-.65.44-.9.98-.87.74.03.76.66.81,1.19.06.62-.42.72-.88.78Z"/>
</svg>